<?xml version="1.0" standalone="no"?>
<!DOCTYPE svg PUBLIC "-//W3C//DTD SVG 20010904//EN"
 "http://www.w3.org/TR/2001/REC-SVG-20010904/DTD/svg10.dtd">
<svg version="1.0" xmlns="http://www.w3.org/2000/svg"
 width="520.000000pt" height="520.000000pt" viewBox="0 0 520.000000 520.000000"
 preserveAspectRatio="xMidYMid meet">
<metadata>
Created by potrace 1.11, written by Peter Selinger 2001-2013
</metadata>
<g transform="translate(0.000000,520.000000) scale(0.100000,-0.100000)"
fill="#000000" stroke="none">
<path d="M2430 4992 l0 -198 -50 -149 c-93 -277 -128 -349 -262 -533 l-39 -53
-29 21 c-15 11 -30 20 -33 20 -10 0 -17 -50 -42 -266 -29 -255 -44 -307 -94
-317 -44 -9 -66 5 -350 227 -19 15 -11 -26 39 -192 43 -142 63 -263 84 -502
12 -142 13 -187 1 -246 -6 -26 -88 -68 -131 -67 -41 1 -98 35 -258 151 -75 56
-165 111 -218 135 l-89 41 -68 -22 c-37 -12 -76 -22 -87 -22 -28 0 -303 97
-518 184 -104 42 -191 74 -193 72 -2 -2 12 -17 31 -34 25 -22 55 -75 115 -204
79 -172 80 -175 130 -418 28 -135 54 -258 57 -275 3 -16 16 -64 29 -105 13
-41 26 -108 29 -149 l5 -73 -39 -36 c-55 -49 -54 -79 5 -123 61 -46 215 -304
194 -323 -8 -7 -67 -59 -132 -116 -112 -97 -124 -104 -200 -126 -64 -19 -105
-24 -196 -24 -68 0 -111 -4 -105 -9 5 -5 69 -39 142 -76 74 -37 143 -76 154
-87 11 -11 90 -62 176 -114 86 -52 164 -102 173 -112 9 -9 39 -86 67 -170 l51
-152 -110 -116 c-90 -94 -108 -118 -98 -130 9 -12 68 -14 338 -14 l327 0 42
-31 c23 -17 42 -36 42 -42 0 -7 -11 -57 -24 -112 -14 -55 -23 -102 -21 -104 7
-6 182 109 250 165 37 30 77 60 89 66 59 31 219 165 283 236 90 100 231 189
350 221 104 28 103 28 220 12 87 -11 106 -17 129 -40 l27 -26 -7 -175 c-4 -96
-11 -231 -16 -300 -13 -170 -14 -160 14 -160 25 0 25 -2 42 345 5 114 8 125
51 227 31 75 51 108 62 108 9 0 55 -4 102 -9 150 -16 251 -78 485 -298 101
-96 147 -130 309 -229 105 -64 196 -119 203 -121 10 -4 11 18 6 105 l-7 111
39 6 c21 4 100 20 174 35 205 43 265 46 406 21 198 -36 177 -37 169 10 -5 28
-35 82 -93 168 -47 69 -93 135 -103 146 -15 17 -18 34 -15 95 2 41 4 98 5 127
1 46 6 57 49 108 26 31 66 68 88 83 82 55 234 188 234 204 0 10 28 36 66 62
39 26 61 47 54 51 -6 4 -52 4 -103 0 -112 -9 -157 2 -220 51 l-47 37 0 64 c0
62 1 66 38 96 20 17 65 61 100 97 l63 65 -7 80 c-6 78 -5 83 49 240 94 273
223 521 354 681 18 23 33 44 33 47 0 3 -43 -12 -96 -33 -115 -47 -287 -96
-369 -105 -72 -8 -271 -52 -297 -66 -14 -8 -25 -5 -45 10 -33 27 -43 26 -40
-1 2 -22 -3 -23 -133 -35 -137 -12 -188 -26 -355 -96 -33 -14 -93 -28 -132
-32 -84 -8 -79 -13 -109 113 -12 56 -15 101 -11 190 3 81 0 142 -10 197 -10
54 -16 152 -17 300 l-1 220 29 63 c16 34 26 65 23 69 -4 3 -57 -11 -120 -31
-62 -20 -116 -36 -119 -36 -4 0 -16 15 -27 34 -19 30 -21 49 -21 210 0 97 -2
176 -4 176 -2 0 -36 -18 -75 -40 -39 -22 -90 -43 -114 -46 -36 -5 -45 -2 -64
18 -18 19 -24 39 -28 103 -5 93 -24 125 -78 138 -34 8 -41 18 -149 210 -62
111 -131 243 -154 293 -23 51 -49 105 -58 120 -9 16 -45 99 -80 184 -88 213
-104 250 -111 250 -3 0 -5 -89 -5 -198z"/>
</g>
</svg>
